<svg width="217" height="76" viewBox="0 0 217 76" fill="none" xmlns="http://www.w3.org/2000/svg">
<g clip-path="url(#clip0_2721_640)">
<path d="M126.35 41.95C126.97 41.57 127.66 41.38 128.4 41.38C129.52 41.38 130.53 41.74 131.43 42.47C132.33 43.2 132.78 44.11 132.78 45.22C132.78 45.76 132.64 46.31 132.36 46.88L120.04 72.71C119.64 73.56 119.03 74.22 118.22 74.68C117.41 75.14 116.54 75.37 115.61 75.37C114.68 75.37 113.8 75.14 113 74.68C112.19 74.22 111.58 73.57 111.18 72.71L98.86 46.88C98.61 46.38 98.49 45.82 98.49 45.22C98.49 44.15 98.96 43.24 99.89 42.49C100.82 41.75 101.87 41.38 103.02 41.38C103.77 41.38 104.46 41.57 105.1 41.95C105.74 42.33 106.23 42.9 106.57 43.66L115.77 63.85L124.92 43.66C125.26 42.9 125.74 42.33 126.37 41.95" fill="#4D4D4D"/>
<path d="M136.87 74.2C136.11 73.43 135.73 72.37 135.73 71.04V45.65C135.73 44.35 136.11 43.32 136.87 42.54C137.63 41.77 138.67 41.38 139.97 41.38C141.27 41.38 142.36 41.77 143.14 42.54C143.92 43.32 144.31 44.35 144.31 45.65V71.04C144.31 72.37 143.92 73.42 143.14 74.2C142.36 74.98 141.3 75.36 139.97 75.36C138.64 75.36 137.63 74.97 136.87 74.2Z" fill="#4D4D4D"/>
<path d="M151.08 74.3C150.39 73.59 150.05 72.58 150.05 71.26V45.47C150.05 44.15 150.39 43.14 151.08 42.43C151.76 41.72 152.74 41.37 154.02 41.37H163.45C167.09 41.37 170.22 42.05 172.85 43.42C175.48 44.79 177.49 46.74 178.89 49.28C180.29 51.82 180.99 54.84 180.99 58.34C180.99 61.84 180.3 64.92 178.91 67.48C177.52 70.03 175.52 71.99 172.89 73.34C170.26 74.69 167.11 75.37 163.44 75.37H154.01C152.73 75.37 151.75 75.02 151.07 74.31M162.85 68.23C166.05 68.23 168.46 67.42 170.06 65.8C171.66 64.18 172.46 61.7 172.46 58.35C172.46 55 171.66 52.53 170.06 50.93C168.46 49.32 166.05 48.52 162.85 48.52H158.65V68.23H162.85Z" fill="#4D4D4D"/>
<path d="M216.84 71.6C216.84 72.65 216.43 73.54 215.6 74.27C214.78 75 213.83 75.36 212.78 75.36C212.06 75.36 211.41 75.17 210.82 74.79C210.23 74.41 209.76 73.84 209.42 73.08L207.32 68.27H192.2L190.05 73.08C189.71 73.84 189.23 74.41 188.63 74.79C188.02 75.17 187.36 75.36 186.65 75.36C185.59 75.36 184.64 75 183.78 74.27C182.92 73.54 182.5 72.65 182.5 71.6C182.5 71.03 182.64 70.44 182.92 69.84L195.24 44.04C195.64 43.18 196.24 42.53 197.04 42.06C197.83 41.6 198.71 41.37 199.68 41.37C200.65 41.37 201.48 41.6 202.29 42.06C203.1 42.52 203.71 43.18 204.11 44.04L216.43 69.84C216.71 70.44 216.85 71.03 216.85 71.6M204.43 61.7L199.76 51.09L195.09 61.7H204.42H204.43Z" fill="#4D4D4D"/>
<path d="M102.56 16.12C101.3 15.42 100.33 14.43 99.6401 13.13C98.9501 11.83 98.6101 10.32 98.6101 8.58002C98.6101 6.84002 98.9501 5.35002 99.6401 4.05002C100.33 2.75002 101.3 1.76002 102.56 1.06002C103.82 0.36002 105.28 0.0200195 106.96 0.0200195C108.97 0.0200195 110.73 0.55002 112.25 1.61002C112.52 1.80002 112.71 2.01002 112.83 2.23002C112.95 2.45002 113.01 2.74002 113.01 3.08002C113.01 3.57002 112.87 3.98002 112.6 4.32002C112.32 4.66002 111.99 4.83002 111.59 4.83002C111.35 4.83002 111.14 4.79002 110.95 4.72002C110.76 4.65002 110.54 4.54002 110.29 4.38002C109.74 4.05002 109.22 3.81002 108.73 3.67002C108.24 3.53002 107.73 3.46002 107.21 3.46002C105.8 3.46002 104.76 3.88002 104.07 4.73002C103.38 5.58002 103.04 6.86002 103.04 8.58002C103.04 10.3 103.38 11.61 104.07 12.46C104.76 13.31 105.81 13.73 107.21 13.73C107.68 13.73 108.14 13.65 108.59 13.5C109.03 13.35 109.6 13.12 110.3 12.8C110.63 12.63 110.88 12.51 111.04 12.45C111.2 12.39 111.39 12.35 111.61 12.35C112.01 12.35 112.34 12.52 112.62 12.86C112.9 13.2 113.03 13.62 113.03 14.1C113.03 14.43 112.97 14.71 112.85 14.94C112.73 15.17 112.54 15.38 112.27 15.57C110.75 16.63 108.99 17.16 106.98 17.16C105.3 17.16 103.84 16.81 102.58 16.12" fill="#4D4D4D"/>
<path d="M117.05 16.11C115.79 15.41 114.83 14.41 114.15 13.12C113.47 11.83 113.13 10.32 113.13 8.58002C113.13 6.84002 113.47 5.33002 114.15 4.04002C114.83 2.75002 115.8 1.76002 117.05 1.06002C118.31 0.36002 119.79 0.0200195 121.5 0.0200195C123.21 0.0200195 124.69 0.370019 125.95 1.06002C127.21 1.76002 128.17 2.75002 128.84 4.04002C129.51 5.33002 129.85 6.84002 129.85 8.58002C129.85 10.32 129.51 11.83 128.83 13.12C128.15 14.41 127.18 15.4 125.93 16.11C124.67 16.81 123.2 17.17 121.51 17.17C119.82 17.17 118.32 16.82 117.06 16.11M124.46 12.48C125.17 11.59 125.53 10.29 125.53 8.58002C125.53 6.87002 125.17 5.58002 124.45 4.69002C123.73 3.81002 122.75 3.36002 121.5 3.36002C120.25 3.36002 119.25 3.80002 118.54 4.68002C117.83 5.56002 117.47 6.86002 117.47 8.58002C117.47 10.3 117.83 11.61 118.54 12.49C119.25 13.38 120.24 13.82 121.5 13.82C122.76 13.82 123.75 13.37 124.46 12.48Z" fill="#4D4D4D"/>
<path d="M131.76 16.63C131.41 16.28 131.24 15.76 131.24 15.08V2.19002C131.24 1.53002 131.43 1.00002 131.82 0.61002C132.21 0.21002 132.73 0.0200195 133.4 0.0200195C134.07 0.0200195 134.62 0.22002 135.01 0.61002C135.41 1.00002 135.6 1.53002 135.6 2.19002V13.56H141.05C142.43 13.56 143.11 14.16 143.11 15.37C143.11 15.98 142.94 16.43 142.6 16.72C142.26 17.01 141.74 17.15 141.05 17.15H133.25C132.6 17.15 132.1 16.97 131.76 16.62" fill="#4D4D4D"/>
<path d="M146.15 16.11C144.89 15.41 143.92 14.41 143.25 13.12C142.57 11.83 142.23 10.32 142.23 8.58002C142.23 6.84002 142.57 5.33002 143.25 4.04002C143.93 2.75002 144.9 1.76002 146.15 1.06002C147.41 0.36002 148.89 0.0200195 150.6 0.0200195C152.31 0.0200195 153.79 0.370019 155.05 1.06002C156.31 1.76002 157.27 2.75002 157.94 4.04002C158.61 5.33002 158.95 6.84002 158.95 8.58002C158.95 10.32 158.61 11.83 157.93 13.12C157.25 14.41 156.28 15.4 155.03 16.11C153.77 16.81 152.3 17.17 150.61 17.17C148.92 17.17 147.42 16.82 146.16 16.11M153.56 12.48C154.27 11.59 154.63 10.29 154.63 8.58002C154.63 6.87002 154.27 5.58002 153.55 4.69002C152.83 3.81002 151.85 3.36002 150.6 3.36002C149.35 3.36002 148.35 3.80002 147.64 4.68002C146.93 5.56002 146.57 6.86002 146.57 8.58002C146.57 10.3 146.92 11.61 147.64 12.49C148.35 13.38 149.34 13.82 150.6 13.82C151.86 13.82 152.85 13.37 153.56 12.48Z" fill="#4D4D4D"/>
<path d="M176.65 0.62002C177.03 1.02002 177.22 1.54002 177.22 2.18002V15.21C177.22 15.82 177.05 16.3 176.7 16.65C176.35 17 175.89 17.18 175.32 17.18C174.75 17.18 174.31 17 173.96 16.65C173.6 16.3 173.43 15.82 173.43 15.21V8.17002L170.73 13.2C170.46 13.71 170.18 14.07 169.88 14.29C169.58 14.5 169.22 14.61 168.81 14.61C168.4 14.61 168.04 14.5 167.74 14.29C167.44 14.07 167.15 13.71 166.89 13.2L164.21 8.31002V15.21C164.21 15.8 164.03 16.28 163.68 16.63C163.32 16.99 162.86 17.17 162.29 17.17C161.72 17.17 161.28 16.99 160.93 16.64C160.57 16.29 160.4 15.81 160.4 15.2V2.18002C160.4 1.54002 160.59 1.02002 160.98 0.62002C161.37 0.22002 161.86 0.0200195 162.46 0.0200195C162.89 0.0200195 163.27 0.14002 163.62 0.39002C163.97 0.64002 164.26 0.99002 164.5 1.46002L168.86 9.75002L173.2 1.46002C173.69 0.50002 174.35 0.0200195 175.19 0.0200195C175.79 0.0200195 176.28 0.22002 176.66 0.62002" fill="#4D4D4D"/>
<path d="M192.59 9.8C193.11 10.52 193.37 11.41 193.37 12.47C193.37 13.41 193.13 14.24 192.65 14.94C192.17 15.65 191.48 16.19 190.59 16.58C189.7 16.97 188.65 17.16 187.45 17.16H181.14C180.49 17.16 179.99 16.98 179.65 16.62C179.3 16.26 179.13 15.75 179.13 15.08V2.07C179.13 1.4 179.3 0.89 179.65 0.54C180 0.18 180.5 0 181.14 0H187.21C188.96 0 190.36 0.4 191.39 1.21C192.43 2.01 192.94 3.1 192.94 4.46C192.94 5.34 192.71 6.11 192.25 6.79C191.79 7.46 191.15 7.96 190.33 8.26C191.31 8.57 192.06 9.08 192.58 9.81M183.36 6.75H186.47C187.29 6.75 187.89 6.62 188.27 6.36C188.65 6.1 188.84 5.69 188.84 5.12C188.84 4.52 188.65 4.08 188.27 3.8C187.89 3.52 187.29 3.39 186.47 3.39H183.36V6.75ZM188.76 13.36C189.13 13.08 189.32 12.61 189.32 11.96C189.32 11.31 189.13 10.84 188.76 10.56C188.39 10.28 187.77 10.13 186.9 10.13H183.37V13.78H186.9C187.77 13.78 188.39 13.64 188.76 13.35" fill="#4D4D4D"/>
<path d="M194.99 16.58C194.6 16.19 194.41 15.66 194.41 14.98V2.16C194.41 1.5 194.6 0.98 194.99 0.59C195.38 0.2 195.9 0 196.57 0C197.24 0 197.79 0.2 198.18 0.59C198.58 0.98 198.77 1.5 198.77 2.16V14.99C198.77 15.66 198.57 16.19 198.18 16.59C197.79 16.98 197.25 17.18 196.57 17.18C195.89 17.18 195.38 16.98 194.99 16.59" fill="#4D4D4D"/>
<path d="M216.84 15.27C216.84 15.8 216.63 16.25 216.21 16.62C215.79 16.99 215.31 17.17 214.78 17.17C214.42 17.17 214.09 17.07 213.79 16.88C213.49 16.69 213.25 16.4 213.08 16.01L212.01 13.58H204.33L203.24 16.01C203.07 16.39 202.83 16.68 202.52 16.88C202.21 17.07 201.88 17.17 201.51 17.17C200.97 17.17 200.49 16.99 200.05 16.62C199.62 16.25 199.4 15.8 199.4 15.27C199.4 14.98 199.47 14.68 199.61 14.38L205.87 1.35C206.07 0.92 206.38 0.58 206.78 0.35C207.18 0.12 207.63 0 208.12 0C208.61 0 209.04 0.12 209.45 0.35C209.86 0.58 210.17 0.92 210.38 1.35L216.64 14.38C216.78 14.68 216.85 14.98 216.85 15.27M210.54 10.27L208.17 4.91L205.8 10.27H210.54Z" fill="#4D4D4D"/>
<path d="M99.0499 35.17C98.9399 35.05 98.8799 34.89 98.8799 34.69V24.92C98.8799 24.73 98.9399 24.58 99.0599 24.47C99.1799 24.36 99.3399 24.3 99.5299 24.3H103.22C104.37 24.3 105.27 24.58 105.9 25.14C106.54 25.7 106.86 26.4901 106.86 27.5201C106.86 28.5501 106.54 29.35 105.9 29.92C105.26 30.49 104.36 30.7801 103.22 30.7801H100.16V34.7001C100.16 34.9001 100.1 35.06 99.9899 35.18C99.8799 35.3 99.7199 35.3601 99.5199 35.3601C99.3199 35.3601 99.1699 35.3 99.0499 35.18M103.09 29.72C104.76 29.72 105.59 28.9901 105.59 27.5301C105.59 26.0701 104.76 25.3701 103.09 25.3701H100.15V29.73H103.09V29.72Z" fill="#4D4D4D"/>
<path d="M110.35 34.68C109.6 34.23 109.02 33.59 108.62 32.76C108.22 31.93 108.01 30.96 108.01 29.83C108.01 28.7 108.21 27.71 108.61 26.88C109.01 26.05 109.59 25.41 110.34 24.96C111.09 24.51 111.98 24.29 113.01 24.29C114.04 24.29 114.93 24.51 115.68 24.96C116.43 25.4 117.01 26.04 117.41 26.88C117.81 27.71 118.01 28.69 118.01 29.82C118.01 30.95 117.81 31.92 117.4 32.76C117 33.59 116.42 34.23 115.67 34.68C114.92 35.13 114.03 35.35 113.02 35.35C112.01 35.35 111.12 35.13 110.37 34.68M115.71 33.13C116.36 32.36 116.68 31.26 116.68 29.83C116.68 28.4 116.36 27.3 115.72 26.53C115.08 25.76 114.17 25.38 113 25.38C111.83 25.38 110.93 25.77 110.29 26.54C109.64 27.31 109.32 28.41 109.32 29.83C109.32 31.25 109.64 32.35 110.29 33.13C110.94 33.91 111.84 34.3 113 34.3C114.16 34.3 115.07 33.91 115.71 33.14" fill="#4D4D4D"/>
<path d="M122.04 35.1701C121.92 35.0501 121.86 34.8901 121.86 34.6901V25.3901H118.52C118.33 25.3901 118.19 25.3401 118.08 25.2501C117.98 25.1601 117.92 25.0201 117.92 24.8501C117.92 24.6801 117.97 24.5401 118.08 24.4501C118.18 24.3601 118.33 24.3101 118.52 24.3101H126.5C126.69 24.3101 126.83 24.3601 126.93 24.4501C127.03 24.5401 127.09 24.6801 127.09 24.8501C127.09 25.0201 127.04 25.1601 126.93 25.2501C126.83 25.3401 126.68 25.3901 126.5 25.3901H123.16V34.6901C123.16 34.8901 123.1 35.0501 122.99 35.1701C122.88 35.2901 122.72 35.3501 122.52 35.3501C122.32 35.3501 122.17 35.2901 122.05 35.1701" fill="#4D4D4D"/>
<path d="M128.31 35.18C128.19 35.06 128.13 34.9101 128.13 34.7201V24.93C128.13 24.74 128.19 24.59 128.31 24.47C128.43 24.35 128.59 24.3 128.78 24.3H134.6C134.79 24.3 134.93 24.3501 135.04 24.4401C135.14 24.5301 135.19 24.67 135.19 24.83C135.19 24.99 135.14 25.13 135.04 25.22C134.94 25.31 134.79 25.3601 134.6 25.3601H129.39V29.2001H134.29C134.48 29.2001 134.62 29.25 134.73 29.34C134.83 29.43 134.89 29.57 134.89 29.73C134.89 29.89 134.84 30.0301 134.73 30.1201C134.63 30.2101 134.48 30.26 134.29 30.26H129.39V34.2701H134.6C134.79 34.2701 134.93 34.3101 135.04 34.4001C135.14 34.4901 135.19 34.62 135.19 34.8C135.19 34.97 135.14 35.1 135.04 35.19C134.94 35.28 134.79 35.3301 134.6 35.3301H128.78C128.58 35.3301 128.42 35.27 128.31 35.16" fill="#4D4D4D"/>
<path d="M145.43 24.48C145.53 24.6 145.58 24.7601 145.58 24.9501V34.7001C145.58 34.8901 145.53 35.05 145.42 35.17C145.31 35.29 145.16 35.35 144.96 35.35C144.76 35.35 144.59 35.26 144.45 35.09L138 26.51V34.7001C138 34.8901 137.94 35.05 137.84 35.17C137.73 35.29 137.58 35.35 137.4 35.35C137.22 35.35 137.07 35.29 136.97 35.17C136.87 35.05 136.81 34.8901 136.81 34.7001V24.9501C136.81 24.7601 136.86 24.6 136.97 24.48C137.08 24.36 137.23 24.3 137.43 24.3C137.64 24.3 137.81 24.39 137.96 24.56L144.4 33.14V24.9501C144.4 24.7601 144.45 24.6 144.56 24.48C144.67 24.36 144.82 24.3 145 24.3C145.18 24.3 145.33 24.36 145.43 24.48Z" fill="#4D4D4D"/>
<path d="M149.86 34.69C149.1 34.24 148.52 33.6101 148.11 32.7701C147.7 31.9401 147.5 30.95 147.5 29.82C147.5 28.69 147.71 27.72 148.11 26.89C148.52 26.06 149.1 25.42 149.86 24.97C150.62 24.52 151.51 24.3 152.55 24.3C153.24 24.3 153.9 24.41 154.52 24.63C155.14 24.85 155.67 25.16 156.13 25.57C156.3 25.72 156.38 25.9001 156.38 26.1101C156.38 26.2501 156.34 26.38 156.26 26.49C156.18 26.6 156.08 26.65 155.97 26.65C155.85 26.65 155.69 26.59 155.52 26.48C154.99 26.07 154.51 25.7901 154.08 25.6201C153.65 25.4601 153.16 25.38 152.59 25.38C151.39 25.38 150.46 25.7701 149.81 26.5401C149.16 27.3101 148.84 28.41 148.84 29.83C148.84 31.25 149.16 32.3601 149.81 33.1301C150.46 33.9001 151.38 34.2901 152.59 34.2901C153.14 34.2901 153.63 34.2101 154.07 34.0401C154.51 33.8801 154.99 33.59 155.52 33.18C155.7 33.07 155.85 33.01 155.97 33.01C156.08 33.01 156.18 33.06 156.26 33.16C156.34 33.26 156.38 33.3901 156.38 33.5401C156.38 33.7401 156.3 33.9201 156.13 34.0801C155.67 34.4901 155.14 34.8001 154.52 35.0201C153.9 35.2401 153.25 35.35 152.55 35.35C151.51 35.35 150.62 35.13 149.86 34.68" fill="#4D4D4D"/>
<path d="M158.21 35.1801C158.1 35.0601 158.04 34.9001 158.04 34.7101V24.9601C158.04 24.7701 158.1 24.6101 158.21 24.4901C158.32 24.3701 158.48 24.3101 158.68 24.3101C158.88 24.3101 159.03 24.3701 159.15 24.4901C159.26 24.6101 159.32 24.7701 159.32 24.9601V34.7101C159.32 34.9001 159.26 35.0601 159.15 35.1801C159.04 35.3001 158.88 35.3601 158.68 35.3601C158.48 35.3601 158.33 35.3001 158.21 35.1801Z" fill="#4D4D4D"/>
<path d="M171.14 34.8101C171.14 34.9601 171.08 35.0901 170.96 35.2001C170.84 35.3101 170.7 35.3501 170.53 35.3501C170.27 35.3501 170.09 35.2301 169.99 34.9801L168.89 32.4801H163.03L161.91 34.9801C161.81 35.2301 161.62 35.3501 161.36 35.3501C161.19 35.3501 161.05 35.3001 160.92 35.1901C160.8 35.0801 160.73 34.9501 160.73 34.8001C160.73 34.7201 160.75 34.6401 160.79 34.5501L165.24 24.7401C165.3 24.6001 165.4 24.4901 165.52 24.4201C165.64 24.3501 165.78 24.3101 165.92 24.3101C166.08 24.3101 166.22 24.3501 166.34 24.4301C166.46 24.5101 166.56 24.6101 166.62 24.7501L171.07 34.5601C171.11 34.6401 171.13 34.7301 171.13 34.8201M168.41 31.4301L165.94 25.8901L163.48 31.4301H168.41Z" fill="#4D4D4D"/>
<path d="M176.35 35.18C176.23 35.07 176.17 34.91 176.17 34.73V24.93C176.17 24.74 176.23 24.59 176.35 24.47C176.47 24.35 176.63 24.3 176.83 24.3H179.86C181.61 24.3 182.97 24.78 183.93 25.73C184.89 26.69 185.37 28.05 185.37 29.81C185.37 31.57 184.89 32.9401 183.92 33.9001C182.96 34.8601 181.6 35.34 179.86 35.34H176.83C176.63 35.34 176.47 35.28 176.35 35.17M179.78 34.26C182.62 34.26 184.04 32.78 184.04 29.82C184.04 26.86 182.62 25.4 179.78 25.4H177.45V34.26H179.78Z" fill="#4D4D4D"/>
<path d="M187.46 35.18C187.34 35.06 187.28 34.9101 187.28 34.7201V24.92C187.28 24.73 187.34 24.58 187.46 24.47C187.58 24.36 187.74 24.3 187.93 24.3H193.75C193.94 24.3 194.08 24.3501 194.19 24.4401C194.29 24.5301 194.34 24.67 194.34 24.83C194.34 24.99 194.29 25.13 194.19 25.22C194.09 25.31 193.94 25.3601 193.75 25.3601H188.54V29.2001H193.44C193.63 29.2001 193.77 29.25 193.88 29.34C193.98 29.43 194.04 29.57 194.04 29.73C194.04 29.89 193.99 30.0301 193.88 30.1201C193.78 30.2101 193.63 30.26 193.44 30.26H188.54V34.2701H193.75C193.94 34.2701 194.08 34.3101 194.19 34.4001C194.29 34.4901 194.34 34.62 194.34 34.8C194.34 34.98 194.29 35.1 194.19 35.19C194.09 35.28 193.94 35.3301 193.75 35.3301H187.93C187.73 35.3301 187.57 35.27 187.46 35.16" fill="#4D4D4D"/>
<path d="M199.74 35.19C199.62 35.08 199.56 34.94 199.56 34.76V24.95C199.56 24.75 199.62 24.6 199.73 24.47C199.84 24.35 200 24.29 200.2 24.29C200.4 24.29 200.55 24.35 200.67 24.47C200.78 24.59 200.84 24.75 200.84 24.95V34.26H205.86C206.05 34.26 206.19 34.31 206.3 34.4C206.4 34.49 206.45 34.63 206.45 34.8C206.45 34.97 206.4 35.11 206.3 35.2C206.2 35.29 206.05 35.34 205.86 35.34H200.18C200 35.34 199.85 35.28 199.74 35.18" fill="#4D4D4D"/>
<path d="M216.84 34.8101C216.84 34.9601 216.78 35.0901 216.66 35.2001C216.54 35.3101 216.4 35.3501 216.23 35.3501C215.97 35.3501 215.79 35.2301 215.69 34.9801L214.59 32.4801H208.73L207.61 34.9801C207.51 35.2301 207.32 35.3501 207.06 35.3501C206.89 35.3501 206.75 35.3001 206.62 35.1901C206.5 35.0801 206.43 34.9501 206.43 34.8001C206.43 34.7201 206.45 34.6401 206.49 34.5501L210.94 24.7401C211 24.6001 211.1 24.4901 211.22 24.4201C211.34 24.3501 211.48 24.3101 211.62 24.3101C211.78 24.3101 211.92 24.3501 212.04 24.4301C212.16 24.5101 212.26 24.6101 212.32 24.7501L216.77 34.5601C216.81 34.6401 216.83 34.7301 216.83 34.8201M214.12 31.4301L211.65 25.8901L209.19 31.4301H214.12Z" fill="#4D4D4D"/>
<path d="M55.0299 37.63C54.2099 49.3 63.8299 57.06 73.5699 62.58C74.2999 62.99 75.1999 62.47 75.1999 61.63V57.03C75.1999 56.38 74.7999 55.8 74.1999 55.58C67.6499 53.09 62.8499 46.48 63.2099 39.73C63.5499 33.4 68.0599 27.33 74.3099 25.06C74.8499 24.86 75.1999 24.35 75.1999 23.78V19.67C75.1999 19 74.4499 18.6 73.8999 18.98C70.6399 21.19 67.1599 23.11 63.8599 25.29C59.3599 28.26 55.4099 32.19 55.0299 37.65" fill="#D23C46"/>
<path d="M39.08 32.94C37.21 36.19 35.9999 39.96 36.3999 43.7C36.7899 47.28 38.7899 50.58 41.1099 53.35C46.1799 59.39 52.7999 64.53 59.5399 68.79C63.4199 71.24 67.4699 73.42 71.6699 75.32C71.7099 75.34 71.9299 75.39 72.1099 75.43C72.2499 75.46 72.3799 75.47 72.5199 75.45L73.4899 75.35C74.4399 75.35 75.1999 74.58 75.1999 73.64C75.1999 72.92 74.7899 72.25 74.1399 71.93L74.0999 71.91C67.9199 68.77 61.7899 65.25 56.7999 60.52C48.2099 52.37 43.3799 39.51 49.2599 28.66C54.3399 19.28 65.7199 16.35 73.2099 9.30001C73.2899 9.22001 73.3699 9.15001 73.4599 9.08001C74.5899 8.16001 75.1999 6.75001 75.1999 5.30001V1.05001C75.1999 0.48001 74.73 0.0100098 74.16 0.0100098C73.66 0.0100098 73.1799 0.18001 72.7899 0.49001C67.2899 4.91001 61.9099 9.47001 56.6899 14.19C50.4299 19.85 43.2699 25.65 39.0699 32.94" fill="#D23C46"/>
<path d="M31.99 54.71C26.7 46.6 27.16 37.2 31.9 28.96C37.71 18.85 48.16 10.76 56.47 3.44C57.46 2.57 58.42 1.86 59.44 1.08C59.91 0.72 59.65 0 59.08 0H11.85C5.3 0 0 5.31 0 11.85V63.51C0 70.05 5.3 75.36 11.85 75.36H52.95C53.54 75.36 53.78 74.59 53.29 74.26C52.83 73.96 52.37 73.65 51.92 73.33C44.52 68.21 36.88 62.18 32 54.71" fill="#D23C46"/>
<path d="M71.51 39.58C71.52 39.5 71.54 39.43 71.56 39.35C71.57 39.22 71.57 39.23 71.51 39.58Z" fill="#D23C46"/>
<path d="M71.55 41.1701C71.54 41.0901 71.51 41.0101 71.5 40.9301C71.54 41.2501 71.55 41.2701 71.55 41.1701Z" fill="#D23C46"/>
<path d="M78.0901 34.4099C81.0001 35.6099 82.4001 38.9399 81.2001 41.8499C80.0001 44.7599 76.6701 46.1599 73.7601 44.9599C70.8501 43.7599 69.4501 40.4299 70.6501 37.5099C71.8501 34.5999 75.1801 33.2 78.0901 34.4" fill="#D23C46"/>
</g>
<defs>
<clipPath id="clip0_2721_640">
<rect width="216.84" height="75.46" fill="white"/>
</clipPath>
</defs>
</svg>
